<?xml version="1.0" encoding="UTF-8" standalone="no"?><!DOCTYPE svg PUBLIC "-//W3C//DTD SVG 1.1//EN" "http://www.w3.org/Graphics/SVG/1.1/DTD/svg11.dtd"><svg width="100%" height="100%" viewBox="0 0 11250 11250" version="1.1" xmlns="http://www.w3.org/2000/svg" xmlns:xlink="http://www.w3.org/1999/xlink" xml:space="preserve" xmlns:serif="http://www.serif.com/" style="fill-rule:evenodd;clip-rule:evenodd;stroke-linejoin:round;stroke-miterlimit:2;"><g id="ロゴ_白_パーツバラ"><g id="a"><path id="a-4" d="M9791.67,5304.84l-0,640.314l-490.196,490.196l-0,-1620.71l490.196,490.196Z" style="fill:#6822ff;"/><path id="a-3" d="M8811.27,4324.45l0,2601.1l-490.196,490.197l0,-3581.49l490.196,490.197Z" style="fill:#6822ff;"/><path id="a-2" d="M8100,3612.5l1691.67,1691.67l-0,162.01l-1691.67,-1691.67l0,-162.01Z" style="fill:#6822ff;"/><path id="a-1" d="M9713.24,5226.29l-1392.16,1392.16l0,156.862l1470.59,-1470.59l-78.432,-78.432Z" style="fill:#6822ff;fill-rule:nonzero;"/></g><g id="k"><path id="k-6" d="M7340.69,2853.86l0,3086.58l490.197,-490.196l-0,-2106.19l-490.197,-490.196Z" style="fill:#6822ff;fill-rule:nonzero;"/><path id="k-5" d="M6850.49,8886.33l0,-5525.8l-490.196,490.196l-0,5525.8l490.196,-490.196Z" style="fill:#6822ff;"/><path id="k-4" d="M7830.88,7905.94l0,-1965.5l-490.196,490.196l-0,1965.5l490.196,-490.197Z" style="fill:#6822ff;fill-rule:nonzero;"/><path id="k-3" d="M7830.88,5291.67l-1470.59,1474.76l-0,158.578l1470.59,-1474.76" style="fill:#6822ff;fill-rule:nonzero;"/><path id="k-2" d="M6850.49,3360.54l-725.49,725.491l14.583,-14.582l-0,162.01l710.907,-710.909l0,-162.01Z" style="fill:#6822ff;"/><path id="k-1" d="M8052.33,7521.87l-710.907,710.909l-0,162.01l710.907,-710.909l-0,-162.01Z" style="fill:#6822ff;"/></g><g id="o"><path id="o-4" d="M6360.29,1873.47l-0,1487.07l490.196,-490.197l0,-506.677l-490.196,-490.196Z" style="fill:#6822ff;"/><path id="o-3" d="M5870.1,1383.27l-245.098,-245.098l-245.098,245.099l-0,2957.66l490.196,-490.196l-0,-2467.46Z" style="fill:#6822ff;"/><path id="o-2" d="M6850.49,2708.33l-1470.59,1470.59l0,162.01l1470.59,-1470.59l0,-162.01Z" style="fill:#6822ff;"/><path id="o-1" d="M5625,1138.18l725.49,725.491l500,500.002l0,162.01l-1225.49,-1225.49l-0,-162.01Z" style="fill:#6822ff;"/></g><g id="s"><path id="s-4" d="M4889.71,1873.47l-490.196,490.196l-0,3543.2l490.196,-490.195l-0,-3543.2Z" style="fill:#6822ff;"/><path id="s-3" d="M5870.1,9866.73l0,-5525.79l-490.196,490.197l0,5035.6l245.098,245.098l245.098,-245.099Z" style="fill:#6822ff;"/><path id="s-2" d="M5869.73,4340.93l-1470.22,1470.22l-0,162.01l1470.22,-1470.22l-0,-162.01Z" style="fill:#6822ff;"/><path id="s-1" d="M5110.42,1652.82l-710.907,710.909l-0,162.01l710.907,-710.909l-0,-162.01Z" style="fill:#6822ff;"/></g><g id="i"><path id="i-2" d="M4889.7,9376.53l-0,-2422.97l-490.197,490.197l0,1442.58l490.197,490.196Z" style="fill:#6822ff;"/><path id="i-1" d="M4889.71,5973.17l-490.196,490.196l-0,490.196l490.196,-490.196l-0,-490.196Z" style="fill:#6822ff;"/></g><g id="m"><path id="m-5" d="M3909.31,8396.14l-490.196,-490.196l0,-4561.88l490.196,-490.196l0,5542.27Z" style="fill:#6822ff;"/><path id="m-4" d="M2928.92,7415.74l-490.196,-490.196l0,-2601.1l490.196,-490.196l0,3581.49Z" style="fill:#6822ff;"/><path id="m-3" d="M1948.53,6435.35l-490.196,-490.196l0,-640.314l490.196,-490.196l0,1620.71Z" style="fill:#6822ff;"/><path id="m-2" d="M3419.12,7743.93l710.907,710.909l0,162.01l-710.907,-710.909l0,-162.01Z" style="fill:#6822ff;"/><path id="m-1" d="M3910.11,2849.14l-2451.78,2451.78l0,162.01l2451.78,-2451.78l0,-162.01Z" style="fill:#6822ff;"/></g></g></svg>